<svg xmlns="http://www.w3.org/2000/svg" width="750" height="1050" viewBox="0 0 750 1050" role="img" aria-labelledby="title desc">
  <title id="title">Monster card back preview</title>
  <desc id="desc">Symmetric monster card back with a watchful eye in a dark, vertically framed sigil.</desc>
  <defs><radialGradient id="field" cx="50%" cy="50%" r="70%"><stop offset="0" stop-color="#2b0b0b"/><stop offset="0.62" stop-color="#170707"/><stop offset="1" stop-color="#070406"/></radialGradient><linearGradient id="blood" x1="0" y1="0" x2="1" y2="1"><stop offset="0" stop-color="#ff7148"/><stop offset="0.46" stop-color="#9f1f1f"/><stop offset="1" stop-color="#d94324"/></linearGradient></defs>
  <rect x="20" y="20" width="710" height="1010" rx="48" fill="#050303"/><rect x="48" y="48" width="654" height="954" rx="38" fill="url(#field)" stroke="#a51f24" stroke-width="14"/><rect x="76" y="76" width="598" height="898" rx="26" fill="none" stroke="#4a1014" stroke-width="4" opacity="0.9"/>
  <g opacity="0.18" stroke="#dc5639" stroke-width="5" fill="none"><ellipse cx="375" cy="525" rx="258" ry="380"/><ellipse cx="375" cy="525" rx="196" ry="300"/><path d="M193 256 L557 794 M557 256 L193 794"/><path d="M375 125 V925 M138 525 H612"/></g>
  <circle cx="375" cy="525" r="236" fill="#120505" stroke="url(#blood)" stroke-width="16"/><circle cx="375" cy="525" r="174" fill="none" stroke="#5e1718" stroke-width="20" opacity="0.95"/>
  <path d="M375 220 C475 355 550 425 550 525 C550 625 475 695 375 830 C275 695 200 625 200 525 C200 425 275 355 375 220 Z" fill="#190707" stroke="url(#blood)" stroke-width="18"/><path d="M375 285 C450 395 488 455 488 525 C488 595 450 655 375 765 C300 655 262 595 262 525 C262 455 300 395 375 285 Z" fill="#250909" stroke="#dc5639" stroke-width="7" opacity="0.9"/>
  <path d="M285 525 Q375 440 465 525 Q375 610 285 525 Z" fill="#120505" stroke="#dc5639" stroke-width="10" stroke-linejoin="round"/><circle cx="375" cy="525" r="36" fill="#9f1f1f" stroke="#ff7148" stroke-width="6"/><ellipse cx="375" cy="525" rx="11" ry="27" fill="#050303"/>
  <g fill="url(#blood)" stroke="#ff7148" stroke-width="3" stroke-linejoin="round"><path d="M375 218 L392 244 L375 270 L358 244 Z"/><path d="M580 525 L554 542 L528 525 L554 508 Z"/><path d="M375 832 L358 806 L375 780 L392 806 Z"/><path d="M170 525 L196 508 L222 525 L196 542 Z"/></g>
</svg>
